<svg width="10" height="10" viewBox="0 0 10 10" fill="none" xmlns="http://www.w3.org/2000/svg">
<g clip-path="url(#clip0_1_4)">
<path d="M8.67969 1.17383C7.80078 0.390625 6.65234 0 5.23047 0C3.69531 0 2.44141 0.503906 1.4668 1.51172C0.490234 2.52148 0.00390625 3.76367 0.00390625 5.24414C0.00390625 6.69531 0.460938 7.85156 1.375 8.71094C2.28906 9.57031 3.47461 10 4.92969 10C5.99219 10 6.85938 9.85156 7.5332 9.55469V8.39063C6.79492 8.74023 5.98242 8.91406 5.09375 8.91406C3.92969 8.91406 3.01758 8.58984 2.35547 7.9375C1.69531 7.28711 1.36328 6.39648 1.36328 5.26758C1.36328 4.10156 1.73633 3.11133 2.48438 2.30078C3.23242 1.49023 4.16992 1.08398 5.29883 1.08398C6.35352 1.08398 7.17383 1.38867 7.76172 1.99609C8.34961 2.60352 8.64453 3.38281 8.64453 4.33398C8.64453 5.0293 8.54297 5.5918 8.33594 6.02344C8.13086 6.45508 7.87109 6.66992 7.55469 6.66992C7.25586 6.66992 7.10352 6.38477 7.10352 5.81641C7.10352 5.2832 7.19141 4.15234 7.37109 2.41992H6.03906L5.98047 3.02344H5.95703C5.80664 2.54688 5.4375 2.31055 4.84961 2.31055C4.19922 2.31055 3.64258 2.60156 3.17969 3.18555C2.71875 3.76953 2.48633 4.52734 2.48633 5.45703C2.48633 6.17773 2.65234 6.74023 2.98633 7.14648C3.32031 7.55273 3.75781 7.75586 4.30273 7.75586C5.0293 7.75586 5.5293 7.36719 5.80664 6.5918H5.8418C5.86133 6.9375 5.99414 7.21875 6.23828 7.43359C6.48242 7.65039 6.80078 7.75781 7.19141 7.75781C7.98437 7.75781 8.65039 7.43945 9.18555 6.80273C9.72266 6.16602 9.99023 5.32227 9.99023 4.26953C9.99609 2.98828 9.55664 1.95508 8.67969 1.17383ZM5.55078 6.06641C5.33789 6.47656 5.04492 6.68359 4.67383 6.68359C4.43359 6.68359 4.23633 6.57422 4.08398 6.35742C3.93164 6.14062 3.85547 5.83594 3.85547 5.44727C3.85547 4.89844 3.9668 4.41602 4.18945 3.99805C4.41211 3.58203 4.70117 3.37305 5.05664 3.37305C5.30078 3.37305 5.49805 3.4668 5.64648 3.6543C5.79492 3.8418 5.86914 4.09766 5.86914 4.42383C5.87109 5.10742 5.76367 5.65625 5.55078 6.06641Z" fill=""/>
</g>
<defs>
<clipPath id="clip0_1_4">
<rect width="10" height="10" fill="white"/>
</clipPath>
</defs>
</svg>
