<svg width="10" height="10" viewBox="0 0 10 10" fill="none" xmlns="http://www.w3.org/2000/svg">
<g clip-path="url(#clip0_1_2)">
<path d="M5.93125 7.91667C6.29167 7.91667 6.48208 8.34333 6.24167 8.61167C6.08549 8.78644 5.89413 8.92623 5.68015 9.02188C5.46617 9.11752 5.23439 9.16686 5 9.16667C4.76561 9.16686 4.53383 9.11752 4.31985 9.02188C4.10587 8.92623 3.91451 8.78644 3.75833 8.61167C3.52833 8.355 3.6925 7.95375 4.0225 7.91958L4.06833 7.91708L5.93125 7.91667ZM5 0.833333C5.56583 0.833333 6.04417 1.20958 6.19792 1.72542L6.21708 1.79667L6.22042 1.81458C6.67975 2.07371 7.07116 2.43796 7.36259 2.8775C7.65402 3.31704 7.83719 3.81937 7.89708 4.34333L7.90875 4.46292L7.91667 4.58333V5.80458L7.92542 5.86125C7.98247 6.16826 8.15236 6.4428 8.40167 6.63083L8.47125 6.67958L8.53875 6.72083C8.89708 6.92375 8.77208 7.45667 8.38167 7.4975L8.33333 7.5H1.66667C1.23833 7.5 1.08875 6.93167 1.46125 6.72083C1.62001 6.63099 1.75719 6.50748 1.86314 6.35899C1.9691 6.21049 2.04127 6.0406 2.07458 5.86125L2.08333 5.80167L2.08375 4.56417C2.10916 4.01995 2.26757 3.49025 2.54512 3.02144C2.82267 2.55264 3.2109 2.159 3.67583 1.875L3.77917 1.81417L3.78333 1.79625C3.84227 1.54709 3.97623 1.32202 4.16712 1.15139C4.35801 0.980765 4.59665 0.872806 4.85083 0.842083L4.92667 0.835L5 0.833333Z" fill=""/>
</g>
<defs>
<clipPath id="clip0_1_2">
<rect width="10" height="10" fill="white"/>
</clipPath>
</defs>
</svg>
