<svg width="10" height="10" viewBox="0 0 10 10" fill="none" xmlns="http://www.w3.org/2000/svg">
<path fill-rule="evenodd" clip-rule="evenodd" d="M5 0.625C5.08288 0.625 5.16237 0.657924 5.22097 0.716529C5.27958 0.775134 5.3125 0.85462 5.3125 0.9375V8.30813L7.27875 6.34125C7.33743 6.28257 7.41701 6.24961 7.5 6.24961C7.58298 6.24961 7.66257 6.28257 7.72125 6.34125C7.77993 6.39993 7.81289 6.47952 7.81289 6.5625C7.81289 6.64548 7.77993 6.72507 7.72125 6.78375L5.22125 9.28375C5.19222 9.31285 5.15774 9.33594 5.11977 9.3517C5.0818 9.36745 5.0411 9.37556 5 9.37556C4.9589 9.37556 4.91819 9.36745 4.88023 9.3517C4.84226 9.33594 4.80778 9.31285 4.77875 9.28375L2.27875 6.78375C2.22007 6.72507 2.18711 6.64548 2.18711 6.5625C2.18711 6.47952 2.22007 6.39993 2.27875 6.34125C2.33743 6.28257 2.41702 6.24961 2.5 6.24961C2.58298 6.24961 2.66257 6.28257 2.72125 6.34125L4.6875 8.30813V0.9375C4.6875 0.85462 4.72042 0.775134 4.77903 0.716529C4.83763 0.657924 4.91712 0.625 5 0.625Z" fill="black"/>
</svg>
