<svg width="10" height="10" viewBox="0 0 10 10" fill="none" xmlns="http://www.w3.org/2000/svg">
<g clip-path="url(#clip0_1_2)">
<path d="M7.91667 1.66667H7.08333V1.25C7.08333 1.13949 7.03943 1.03351 6.96129 0.955372C6.88315 0.877232 6.77717 0.833333 6.66667 0.833333C6.55616 0.833333 6.45018 0.877232 6.37204 0.955372C6.2939 1.03351 6.25 1.13949 6.25 1.25V1.66667H3.75V1.25C3.75 1.13949 3.7061 1.03351 3.62796 0.955372C3.54982 0.877232 3.44384 0.833333 3.33333 0.833333C3.22283 0.833333 3.11685 0.877232 3.03871 0.955372C2.96057 1.03351 2.91667 1.13949 2.91667 1.25V1.66667H2.08333C1.75181 1.66667 1.43387 1.79836 1.19945 2.03278C0.96503 2.2672 0.833333 2.58515 0.833333 2.91667V7.91667C0.833333 8.24819 0.96503 8.56613 1.19945 8.80055C1.43387 9.03497 1.75181 9.16667 2.08333 9.16667H7.91667C8.24819 9.16667 8.56613 9.03497 8.80055 8.80055C9.03497 8.56613 9.16667 8.24819 9.16667 7.91667V2.91667C9.16667 2.58515 9.03497 2.2672 8.80055 2.03278C8.56613 1.79836 8.24819 1.66667 7.91667 1.66667ZM8.33333 7.91667C8.33333 8.02717 8.28943 8.13315 8.21129 8.21129C8.13315 8.28943 8.02717 8.33333 7.91667 8.33333H2.08333C1.97283 8.33333 1.86685 8.28943 1.78871 8.21129C1.71057 8.13315 1.66667 8.02717 1.66667 7.91667V5H8.33333V7.91667ZM8.33333 4.16667H1.66667V2.91667C1.66667 2.80616 1.71057 2.70018 1.78871 2.62204C1.86685 2.5439 1.97283 2.5 2.08333 2.5H2.91667V2.91667C2.91667 3.02717 2.96057 3.13315 3.03871 3.21129C3.11685 3.28943 3.22283 3.33333 3.33333 3.33333C3.44384 3.33333 3.54982 3.28943 3.62796 3.21129C3.7061 3.13315 3.75 3.02717 3.75 2.91667V2.5H6.25V2.91667C6.25 3.02717 6.2939 3.13315 6.37204 3.21129C6.45018 3.28943 6.55616 3.33333 6.66667 3.33333C6.77717 3.33333 6.88315 3.28943 6.96129 3.21129C7.03943 3.13315 7.08333 3.02717 7.08333 2.91667V2.5H7.91667C8.02717 2.5 8.13315 2.5439 8.21129 2.62204C8.28943 2.70018 8.33333 2.80616 8.33333 2.91667V4.16667Z" fill=""/>
</g>
<defs>
<clipPath id="clip0_1_2">
<rect width="10" height="10" fill="white"/>
</clipPath>
</defs>
</svg>
