<svg width="10" height="10" viewBox="0 0 10 10" fill="none" xmlns="http://www.w3.org/2000/svg">
<path d="M5 8.33333H2.08333C1.86232 8.33333 1.65036 8.24554 1.49408 8.08926C1.3378 7.93298 1.25 7.72101 1.25 7.5V3.75C1.25 3.52899 1.3378 3.31702 1.49408 3.16074C1.65036 3.00446 1.86232 2.91667 2.08333 2.91667H2.5C2.72101 2.91667 2.93298 2.82887 3.08926 2.67259C3.24554 2.51631 3.33333 2.30435 3.33333 2.08333C3.33333 1.97283 3.37723 1.86685 3.45537 1.78871C3.53351 1.71057 3.63949 1.66667 3.75 1.66667H6.25C6.36051 1.66667 6.46649 1.71057 6.54463 1.78871C6.62277 1.86685 6.66667 1.97283 6.66667 2.08333C6.66667 2.30435 6.75446 2.51631 6.91074 2.67259C7.06702 2.82887 7.27899 2.91667 7.5 2.91667H7.91667C8.13768 2.91667 8.34964 3.00446 8.50592 3.16074C8.6622 3.31702 8.75 3.52899 8.75 3.75V5.20833M6.66667 7.91667H9.16667M7.91667 6.66667V9.16667" stroke="black" stroke-width="0.833333" stroke-linecap="round" stroke-linejoin="round"/>
<path d="M3.75 5.41667C3.75 5.74819 3.8817 6.06613 4.11612 6.30055C4.35054 6.53497 4.66848 6.66667 5 6.66667C5.33152 6.66667 5.64946 6.53497 5.88388 6.30055C6.1183 6.06613 6.25 5.74819 6.25 5.41667C6.25 5.08515 6.1183 4.7672 5.88388 4.53278C5.64946 4.29836 5.33152 4.16667 5 4.16667C4.66848 4.16667 4.35054 4.29836 4.11612 4.53278C3.8817 4.7672 3.75 5.08515 3.75 5.41667Z" stroke="black" stroke-width="0.833333" stroke-linecap="round" stroke-linejoin="round"/>
</svg>
