<svg width="10" height="10" viewBox="0 0 10 10" fill="none" xmlns="http://www.w3.org/2000/svg">
<path d="M7.91667 1.25H2.08333C1.86232 1.25 1.65036 1.3378 1.49408 1.49408C1.3378 1.65036 1.25 1.86232 1.25 2.08333V7.91667C1.25 8.13768 1.3378 8.34964 1.49408 8.50592C1.65036 8.6622 1.86232 8.75 2.08333 8.75H7.91667C8.13768 8.75 8.34964 8.6622 8.50592 8.50592C8.6622 8.34964 8.75 8.13768 8.75 7.91667V2.08333C8.75 1.86232 8.6622 1.65036 8.50592 1.49408C8.34964 1.3378 8.13768 1.25 7.91667 1.25ZM6.5 7.08333L5 5.58333L3.5 7.08333L2.91667 6.5L4.41667 5L2.91667 3.5L3.5 2.91667L5 4.41667L6.5 2.91667L7.08333 3.5L5.58333 5L7.08333 6.5L6.5 7.08333Z" fill="black"/>
</svg>
