<svg width="10" height="10" viewBox="0 0 10 10" fill="none" xmlns="http://www.w3.org/2000/svg">
<g clip-path="url(#clip0_1_10)">
<path d="M9.76543 3.4375H8.59609L8.27109 2.625C7.93711 1.78965 7.14004 1.25 6.24023 1.25H3.75977C2.86016 1.25 2.06289 1.78965 1.72871 2.625L1.40371 3.4375H0.23457C0.0820313 3.4375 -0.0298828 3.58086 0.00722658 3.72871L0.124414 4.19746C0.150391 4.30176 0.244141 4.375 0.351758 4.375H0.74375C0.481445 4.6041 0.3125 4.93711 0.3125 5.3125V6.25C0.3125 6.56484 0.432813 6.84902 0.625 7.06895V8.125C0.625 8.47012 0.904883 8.75 1.25 8.75H1.875C2.22012 8.75 2.5 8.47012 2.5 8.125V7.5H7.5V8.125C7.5 8.47012 7.77988 8.75 8.125 8.75H8.75C9.09512 8.75 9.375 8.47012 9.375 8.125V7.06895C9.56719 6.84922 9.6875 6.56504 9.6875 6.25V5.3125C9.6875 4.93711 9.51855 4.6041 9.25645 4.375H9.64844C9.75605 4.375 9.84981 4.30176 9.87578 4.19746L9.99297 3.72871C10.0299 3.58086 9.91797 3.4375 9.76543 3.4375ZM2.88926 3.08926C3.03164 2.7334 3.37637 2.5 3.75977 2.5H6.24023C6.62363 2.5 6.96836 2.7334 7.11074 3.08926L7.5 4.0625H2.5L2.88926 3.08926ZM1.875 6.24609C1.5 6.24609 1.25 5.99687 1.25 5.62305C1.25 5.24922 1.5 5 1.875 5C2.25 5 2.8125 5.56074 2.8125 5.93457C2.8125 6.3084 2.25 6.24609 1.875 6.24609ZM8.125 6.24609C7.75 6.24609 7.1875 6.3084 7.1875 5.93457C7.1875 5.56074 7.75 5 8.125 5C8.5 5 8.75 5.24922 8.75 5.62305C8.75 5.99687 8.5 6.24609 8.125 6.24609Z" fill="black"/>
</g>
<defs>
<clipPath id="clip0_1_10">
<rect width="10" height="10" fill="white"/>
</clipPath>
</defs>
</svg>
