<svg width="10" height="10" viewBox="0 0 10 10" fill="none" xmlns="http://www.w3.org/2000/svg">
<path d="M4.6575 8.15375C4.69573 8.20927 4.74687 8.25466 4.80654 8.28602C4.8662 8.31738 4.9326 8.33376 5 8.33376C5.0674 8.33376 5.1338 8.31738 5.19346 8.28602C5.25313 8.25466 5.30428 8.20927 5.3425 8.15375L9.0925 2.73708C9.13591 2.67461 9.16136 2.60143 9.1661 2.5255C9.17083 2.44957 9.15467 2.3738 9.11937 2.30641C9.08407 2.23903 9.03097 2.1826 8.96585 2.14327C8.90073 2.10394 8.82608 2.08321 8.75 2.08333H1.25C1.1741 2.08365 1.09972 2.10464 1.03487 2.14407C0.97001 2.18349 0.917126 2.23985 0.881904 2.30708C0.846681 2.37431 0.830453 2.44987 0.834963 2.52564C0.839473 2.6014 0.864551 2.67451 0.9075 2.73708L4.6575 8.15375Z" fill=""/>
</svg>
