<svg width="14" height="10" viewBox="0 0 14 10" fill="none" xmlns="http://www.w3.org/2000/svg">
<g clip-path="url(#clip0_1_4)">
<path d="M5.83667 7.05729C5.83667 7.29601 5.76831 7.49891 5.63159 7.66602C5.49487 7.83312 5.33102 7.91667 5.14005 7.91667H2.36661C2.17564 7.91667 2.0118 7.83312 1.87508 7.66602C1.73836 7.49891 1.67 7.29601 1.67 7.05729C1.67 6.82292 1.68628 6.60482 1.71883 6.40299C1.75138 6.20117 1.80455 6.00586 1.87833 5.81706C1.95212 5.62826 2.0628 5.4796 2.21036 5.37109C2.35793 5.26259 2.53372 5.20833 2.73771 5.20833C3.01549 5.48611 3.35403 5.625 3.75333 5.625C4.15264 5.625 4.49118 5.48611 4.76896 5.20833C4.97295 5.20833 5.14873 5.26259 5.2963 5.37109C5.44387 5.4796 5.55455 5.62826 5.62833 5.81706C5.70212 6.00586 5.75529 6.20117 5.78784 6.40299C5.82039 6.60482 5.83667 6.82292 5.83667 7.05729ZM5.00333 4.16667C5.00333 4.51389 4.88181 4.80903 4.63875 5.05208C4.39569 5.29514 4.10056 5.41667 3.75333 5.41667C3.40611 5.41667 3.11097 5.29514 2.86792 5.05208C2.62486 4.80903 2.50333 4.51389 2.50333 4.16667C2.50333 3.81944 2.62486 3.52431 2.86792 3.28125C3.11097 3.03819 3.40611 2.91667 3.75333 2.91667C4.10056 2.91667 4.39569 3.03819 4.63875 3.28125C4.88181 3.52431 5.00333 3.81944 5.00333 4.16667ZM11.67 6.875V7.29167C11.67 7.35243 11.6505 7.40234 11.6114 7.44141C11.5723 7.48047 11.5224 7.5 11.4617 7.5H6.87833C6.81757 7.5 6.76766 7.48047 6.72859 7.44141C6.68953 7.40234 6.67 7.35243 6.67 7.29167V6.875C6.67 6.81424 6.68953 6.76432 6.72859 6.72526C6.76766 6.6862 6.81757 6.66667 6.87833 6.66667H11.4617C11.5224 6.66667 11.5723 6.6862 11.6114 6.72526C11.6505 6.76432 11.67 6.81424 11.67 6.875ZM9.17 5.20833V5.625C9.17 5.68576 9.15047 5.73568 9.11141 5.77474C9.07234 5.8138 9.02243 5.83333 8.96167 5.83333H6.87833C6.81757 5.83333 6.76766 5.8138 6.72859 5.77474C6.68953 5.73568 6.67 5.68576 6.67 5.625V5.20833C6.67 5.14757 6.68953 5.09766 6.72859 5.05859C6.76766 5.01953 6.81757 5 6.87833 5H8.96167C9.02243 5 9.07234 5.01953 9.11141 5.05859C9.15047 5.09766 9.17 5.14757 9.17 5.20833ZM11.67 5.20833V5.625C11.67 5.68576 11.6505 5.73568 11.6114 5.77474C11.5723 5.8138 11.5224 5.83333 11.4617 5.83333H10.2117C10.1509 5.83333 10.101 5.8138 10.0619 5.77474C10.0229 5.73568 10.0033 5.68576 10.0033 5.625V5.20833C10.0033 5.14757 10.0229 5.09766 10.0619 5.05859C10.101 5.01953 10.1509 5 10.2117 5H11.4617C11.5224 5 11.5723 5.01953 11.6114 5.05859C11.6505 5.09766 11.67 5.14757 11.67 5.20833ZM11.67 3.54167V3.95833C11.67 4.0191 11.6505 4.06901 11.6114 4.10807C11.5723 4.14714 11.5224 4.16667 11.4617 4.16667H6.87833C6.81757 4.16667 6.76766 4.14714 6.72859 4.10807C6.68953 4.06901 6.67 4.0191 6.67 3.95833V3.54167C6.67 3.4809 6.68953 3.43099 6.72859 3.39193C6.76766 3.35286 6.81757 3.33333 6.87833 3.33333H11.4617C11.5224 3.33333 11.5723 3.35286 11.6114 3.39193C11.6505 3.43099 11.67 3.4809 11.67 3.54167ZM12.5033 8.95833V1.66667H0.836667V8.95833C0.836667 9.01476 0.857283 9.06358 0.898516 9.10482C0.939748 9.14605 0.988577 9.16667 1.045 9.16667H12.295C12.3514 9.16667 12.4003 9.14605 12.4415 9.10482C12.4827 9.06358 12.5033 9.01476 12.5033 8.95833ZM13.3367 1.04167V8.95833C13.3367 9.24479 13.2347 9.49002 13.0307 9.69401C12.8267 9.898 12.5815 10 12.295 10H1.045C0.758542 10 0.513316 9.898 0.309323 9.69401C0.10533 9.49002 0.00333357 9.24479 0.00333357 8.95833V1.04167C0.00333357 0.755208 0.10533 0.509983 0.309323 0.30599C0.513316 0.101997 0.758542 0 1.045 0H12.295C12.5815 0 12.8267 0.101997 13.0307 0.30599C13.2347 0.509983 13.3367 0.755208 13.3367 1.04167Z" fill=""/>
</g>
<defs>
<clipPath id="clip0_1_4">
<rect width="13.34" height="10" fill="white"/>
</clipPath>
</defs>
</svg>
