<svg width="10" height="10" viewBox="0 0 10 10" fill="none" xmlns="http://www.w3.org/2000/svg">
<path d="M5.12563 0.9375C6.89958 0.9375 8.33812 2.12854 8.33812 3.59792C8.33812 5.06729 6.9 5.96125 5.12563 5.96125C3.44021 5.92736 2.24625 5.39667 1.54375 4.36917C1.5186 4.33154 1.50114 4.2893 1.49238 4.24489C1.48362 4.20048 1.48373 4.15478 1.49271 4.11042C1.89438 2.10597 3.10535 1.04833 5.12563 0.9375ZM5.00563 2.5925C3.98549 2.69583 3.36125 3.18146 3.13292 4.04937C3.44403 4.32368 4.06833 4.4759 5.00583 4.50604C5.9475 4.49146 6.51812 4.21667 6.52917 3.57854C6.47062 2.87354 5.78521 2.56583 5.00563 2.5925Z" stroke="black" stroke-width="0.208333" stroke-linejoin="round"/>
<path d="M1.3325 5.14792C1.85875 6.65771 3.31021 7.49792 4.80208 7.49792C6.03958 7.49792 6.85958 6.9625 7.28958 6.15417L8.67625 7.02292C8.19292 8.20521 6.76 9.0625 5.06729 9.0625C2.97792 9.0625 1.18875 7.65417 1.33188 5.20604C1.33188 5.18646 1.33208 5.16708 1.3325 5.14792Z" stroke="black" stroke-width="0.208333" stroke-linejoin="round"/>
</svg>
