<svg width="10" height="10" viewBox="0 0 10 10" fill="none" xmlns="http://www.w3.org/2000/svg">
<path d="M3.125 2.65625V4.6875H6.12051L5.0916 3.6584C5.03547 3.59932 5.00464 3.52064 5.00568 3.43916C5.00673 3.35767 5.03956 3.27981 5.09719 3.22219C5.15481 3.16456 5.23267 3.13173 5.31416 3.13068C5.39564 3.12964 5.47432 3.16047 5.5334 3.2166L7.0959 4.7791C7.15446 4.8377 7.18736 4.91716 7.18736 5C7.18736 5.08284 7.15446 5.1623 7.0959 5.2209L5.5334 6.7834C5.47432 6.83953 5.39564 6.87036 5.31416 6.86932C5.23267 6.86827 5.15481 6.83544 5.09719 6.77781C5.03956 6.72019 5.00673 6.64233 5.00568 6.56084C5.00464 6.47936 5.03547 6.40068 5.0916 6.3416L6.12051 5.3125H3.125V7.34375C3.12531 7.63374 3.24064 7.91175 3.44569 8.11681C3.65075 8.32186 3.92876 8.43719 4.21875 8.4375H8.28125C8.57124 8.43719 8.84925 8.32186 9.05431 8.11681C9.25936 7.91175 9.37469 7.63374 9.375 7.34375V2.65625C9.37469 2.36626 9.25936 2.08825 9.05431 1.88319C8.84925 1.67814 8.57124 1.56281 8.28125 1.5625H4.21875C3.92876 1.56281 3.65075 1.67814 3.44569 1.88319C3.24064 2.08825 3.12531 2.36626 3.125 2.65625ZM0.9375 4.6875C0.85462 4.6875 0.775134 4.72042 0.716529 4.77903C0.657924 4.83763 0.625 4.91712 0.625 5C0.625 5.08288 0.657924 5.16237 0.716529 5.22097C0.775134 5.27958 0.85462 5.3125 0.9375 5.3125H3.125V4.6875H0.9375Z" fill="black"/>
</svg>
