<svg width="10" height="10" viewBox="0 0 10 10" fill="none" xmlns="http://www.w3.org/2000/svg">
<path d="M3.81725 7.0365C3.80044 7.03653 3.7838 7.03316 3.76834 7.02658C3.75287 7.02001 3.73889 7.01037 3.72725 6.99825L1.8875 5.0905C1.865 5.06728 1.85242 5.03621 1.85242 5.00387C1.85242 4.97154 1.865 4.94047 1.8875 4.91725L3.73525 3.00175C3.74645 2.98922 3.76006 2.97908 3.77526 2.97194C3.79047 2.96479 3.80696 2.96078 3.82375 2.96015C3.84054 2.95952 3.85729 2.96228 3.87298 2.96827C3.88868 2.97426 3.90301 2.98335 3.91512 2.995C3.92723 3.00666 3.93686 3.02063 3.94344 3.03609C3.95002 3.05155 3.95342 3.06817 3.95344 3.08497C3.95345 3.10178 3.95007 3.11841 3.94351 3.13388C3.93695 3.14934 3.92734 3.16333 3.91525 3.175L2.15125 5.00375L3.90725 6.82475C3.92427 6.84241 3.93572 6.86469 3.94018 6.88881C3.94463 6.91293 3.94189 6.93782 3.93229 6.9604C3.9227 6.98297 3.90668 7.00222 3.88622 7.01575C3.86576 7.02929 3.84178 7.0365 3.81725 7.0365Z" fill=""/>
<path d="M8.0225 5.129H1.9775C1.94435 5.129 1.91255 5.11583 1.88911 5.09239C1.86567 5.06895 1.8525 5.03715 1.8525 5.004C1.8525 4.97085 1.86567 4.93905 1.88911 4.91561C1.91255 4.89217 1.94435 4.879 1.9775 4.879H8.0225C8.05565 4.879 8.08745 4.89217 8.11089 4.91561C8.13433 4.93905 8.1475 4.97085 8.1475 5.004C8.1475 5.03715 8.13433 5.06895 8.11089 5.09239C8.08745 5.11583 8.05565 5.129 8.0225 5.129Z" fill=""/>
</svg>
