<svg width="10" height="10" viewBox="0 0 10 10" fill="none" xmlns="http://www.w3.org/2000/svg">
<path d="M6.1825 7.0365C6.19931 7.03653 6.21595 7.03316 6.23141 7.02658C6.24688 7.02001 6.26086 7.01037 6.2725 6.99825L8.11225 5.0905C8.13475 5.06728 8.14733 5.03621 8.14733 5.00387C8.14733 4.97154 8.13475 4.94047 8.11225 4.91725L6.2645 3.00175C6.2533 2.98922 6.23969 2.97908 6.22449 2.97194C6.20928 2.96479 6.19279 2.96078 6.176 2.96015C6.15921 2.95952 6.14246 2.96228 6.12677 2.96827C6.11107 2.97426 6.09674 2.98335 6.08463 2.995C6.07252 3.00666 6.06289 3.02063 6.05631 3.03609C6.04973 3.05155 6.04633 3.06817 6.04631 3.08497C6.0463 3.10178 6.04968 3.11841 6.05624 3.13388C6.0628 3.14934 6.07241 3.16333 6.0845 3.175L7.8485 5.00375L6.0925 6.82475C6.07548 6.84241 6.06403 6.86469 6.05957 6.88881C6.05512 6.91293 6.05786 6.93782 6.06746 6.9604C6.07705 6.98297 6.09307 7.00222 6.11353 7.01575C6.13399 7.02929 6.15797 7.0365 6.1825 7.0365Z" fill=""/>
<path d="M1.9775 5.12875H8.0225C8.05565 5.12875 8.08745 5.11558 8.11089 5.09214C8.13433 5.0687 8.1475 5.0369 8.1475 5.00375C8.1475 4.9706 8.13433 4.9388 8.11089 4.91536C8.08745 4.89192 8.05565 4.87875 8.0225 4.87875H1.9775C1.94435 4.87875 1.91255 4.89192 1.88911 4.91536C1.86567 4.9388 1.8525 4.9706 1.8525 5.00375C1.8525 5.0369 1.86567 5.0687 1.88911 5.09214C1.91255 5.11558 1.94435 5.12875 1.9775 5.12875Z" fill=""/>
</svg>
