<svg width="10" height="10" viewBox="0 0 10 10" fill="none" xmlns="http://www.w3.org/2000/svg">
<path d="M1.0225 3.30813C1.1397 3.19096 1.29865 3.12513 1.46438 3.12513C1.6301 3.12513 1.78905 3.19096 1.90625 3.30813L5 6.40188L8.09375 3.30813C8.21163 3.19428 8.3695 3.13128 8.53338 3.1327C8.69725 3.13413 8.85401 3.19986 8.96989 3.31574C9.08577 3.43162 9.1515 3.58838 9.15292 3.75225C9.15435 3.91612 9.09135 4.074 8.9775 4.19187L5.44187 7.7275C5.32467 7.84467 5.16573 7.91049 5 7.91049C4.83427 7.91049 4.67533 7.84467 4.55813 7.7275L1.0225 4.19187C0.905331 4.07467 0.839509 3.91573 0.839509 3.75C0.839509 3.58427 0.905331 3.42533 1.0225 3.30813Z" fill="black"/>
</svg>
