<svg width="10" height="10" viewBox="0 0 10 10" fill="none" xmlns="http://www.w3.org/2000/svg">
<path d="M6.69187 1.0225C6.80904 1.1397 6.87487 1.29865 6.87487 1.46438C6.87487 1.6301 6.80904 1.78905 6.69187 1.90625L3.59813 5L6.69187 8.09375C6.80572 8.21163 6.86872 8.3695 6.8673 8.53338C6.86587 8.69725 6.80014 8.85401 6.68426 8.96989C6.56838 9.08577 6.41162 9.1515 6.24775 9.15292C6.08388 9.15435 5.926 9.09135 5.80813 8.9775L2.2725 5.44187C2.15533 5.32467 2.08951 5.16573 2.08951 5C2.08951 4.83427 2.15533 4.67533 2.2725 4.55813L5.80813 1.0225C5.92533 0.905331 6.08427 0.839509 6.25 0.839509C6.41573 0.839509 6.57467 0.905331 6.69187 1.0225Z" fill="black"/>
</svg>
