<svg width="10" height="10" viewBox="0 0 10 10" fill="none" xmlns="http://www.w3.org/2000/svg">
<path d="M6.245 4.97C6.23719 4.64457 6.10274 4.33502 5.87023 4.10719C5.63773 3.87936 5.32552 3.75121 5 3.75L6.245 4.97Z" fill=""/>
<path d="M4.1 2.95C4.38241 2.82023 4.68921 2.75205 5 2.75C5.59674 2.75 6.16903 2.98705 6.59099 3.40901C7.01295 3.83097 7.25 4.40326 7.25 5C7.2494 5.26502 7.20025 5.52769 7.105 5.775L8.5 7.07C9.12282 6.47792 9.6313 5.77622 10 5C10 5 8.5 1.5 5 1.5C4.3106 1.49685 3.62855 1.64179 3 1.925L4.1 2.95ZM1 1L0.5 1.5L1.775 2.7C1.0278 3.33295 0.422898 4.11677 0 5C0 5 1.5 8.5 5 8.5C5.8097 8.50398 6.60743 8.30455 7.32 7.92L9 9.5L9.5 9L1 1ZM5 7.25C4.40326 7.25 3.83097 7.01295 3.40901 6.59099C2.98705 6.16903 2.75 5.59674 2.75 5C2.75276 4.6135 2.85616 4.23439 3.05 3.9L3.815 4.62C3.77357 4.74248 3.75164 4.87071 3.75 5C3.74949 5.2035 3.79888 5.40403 3.89383 5.58402C3.98879 5.76401 4.12642 5.91798 4.29467 6.03245C4.46293 6.14693 4.65668 6.21841 4.85896 6.24064C5.06125 6.26288 5.2659 6.23519 5.455 6.16L6.225 6.885C5.86091 7.12333 5.43516 7.25018 5 7.25Z" fill=""/>
</svg>
