<svg width="10" height="10" viewBox="0 0 10 10" fill="none" xmlns="http://www.w3.org/2000/svg">
<path d="M5 3.75C4.66848 3.75 4.35054 3.8817 4.11612 4.11612C3.8817 4.35054 3.75 4.66848 3.75 5C3.75 5.33152 3.8817 5.64946 4.11612 5.88388C4.35054 6.1183 4.66848 6.25 5 6.25C5.33152 6.25 5.64946 6.1183 5.88388 5.88388C6.1183 5.64946 6.25 5.33152 6.25 5C6.25 4.66848 6.1183 4.35054 5.88388 4.11612C5.64946 3.8817 5.33152 3.75 5 3.75ZM5 7.08333C4.44747 7.08333 3.91756 6.86384 3.52686 6.47314C3.13616 6.08244 2.91667 5.55253 2.91667 5C2.91667 4.44747 3.13616 3.91756 3.52686 3.52686C3.91756 3.13616 4.44747 2.91667 5 2.91667C5.55253 2.91667 6.08244 3.13616 6.47314 3.52686C6.86384 3.91756 7.08333 4.44747 7.08333 5C7.08333 5.55253 6.86384 6.08244 6.47314 6.47314C6.08244 6.86384 5.55253 7.08333 5 7.08333ZM5 1.875C2.91667 1.875 1.1375 3.17083 0.416667 5C1.1375 6.82917 2.91667 8.125 5 8.125C7.08333 8.125 8.8625 6.82917 9.58333 5C8.8625 3.17083 7.08333 1.875 5 1.875Z" fill=""/>
</svg>
