<svg width="10" height="10" viewBox="0 0 10 10" fill="none" xmlns="http://www.w3.org/2000/svg">
<g clip-path="url(#clip0_1_5)">
<path d="M9.44444 4.66111C9.54768 4.5842 9.62426 4.47691 9.66345 4.35428C9.70263 4.23165 9.70246 4.09983 9.66294 3.97731C9.62343 3.85478 9.54656 3.7477 9.44311 3.67107C9.33967 3.59444 9.21483 3.5521 9.08611 3.55L6.58611 3.45556C6.57382 3.45471 6.56204 3.45032 6.55218 3.44293C6.54232 3.43554 6.53481 3.42545 6.53056 3.41389L5.66667 1.08056C5.62326 0.961844 5.54443 0.859338 5.44083 0.786915C5.33724 0.714493 5.2139 0.675652 5.0875 0.675652C4.9611 0.675652 4.83776 0.714493 4.73417 0.786915C4.63057 0.859338 4.55174 0.961844 4.50833 1.08056L3.64722 3.42222C3.64297 3.43378 3.63546 3.44387 3.6256 3.45126C3.61574 3.45866 3.60396 3.46304 3.59167 3.46389L1.09167 3.55833C0.962946 3.56044 0.83811 3.60277 0.734664 3.6794C0.631219 3.75603 0.55435 3.86312 0.514836 3.98564C0.475322 4.10817 0.475144 4.23998 0.514329 4.36261C0.553513 4.48524 0.630094 4.59253 0.733333 4.66944L2.69444 6.21111C2.70426 6.21884 2.71159 6.22927 2.71554 6.24111C2.71949 6.25296 2.71988 6.26571 2.71667 6.27778L2.04167 8.66944C2.00669 8.79123 2.01008 8.92084 2.05137 9.04064C2.09267 9.16043 2.16986 9.2646 2.27246 9.33897C2.37505 9.41333 2.49807 9.45429 2.62476 9.45626C2.75146 9.45824 2.87569 9.42113 2.98056 9.35L5.05278 7.96111C5.06299 7.95406 5.0751 7.95029 5.0875 7.95029C5.0999 7.95029 5.11201 7.95406 5.12222 7.96111L7.19444 9.35C7.29789 9.42357 7.42168 9.46309 7.54861 9.46309C7.67555 9.46309 7.79933 9.42357 7.90278 9.35C8.0054 9.27633 8.08267 9.17268 8.12396 9.05329C8.16524 8.9339 8.16852 8.80466 8.13333 8.68333L7.45278 6.28333C7.44917 6.27129 7.44937 6.25842 7.45335 6.24649C7.45732 6.23456 7.46489 6.22414 7.475 6.21667L9.44444 4.66111Z" fill=""/>
</g>
<defs>
<clipPath id="clip0_1_5">
<rect width="10" height="10" fill="white"/>
</clipPath>
</defs>
</svg>
