<svg width="10" height="10" viewBox="0 0 10 10" fill="none" xmlns="http://www.w3.org/2000/svg">
<g clip-path="url(#clip0_1_9)">
<path d="M3.31813 5.875L0.72125 3.50937C0.690942 3.48124 0.666766 3.44715 0.650233 3.40924C0.633701 3.37133 0.625168 3.33042 0.625168 3.28906C0.625168 3.24771 0.633701 3.20679 0.650233 3.16889C0.666766 3.13098 0.690942 3.09689 0.72125 3.06875L3.31813 0.703125C3.50875 0.528125 3.81813 0.665625 3.81813 0.925V2.05937C3.81813 2.16875 3.90875 2.25937 4.01813 2.25937H8.97438C9.18063 2.25937 9.34625 2.425 9.34625 2.63125V3.94687C9.34625 4.15312 9.18063 4.31875 8.97438 4.31875H4.01813C3.90875 4.31875 3.81813 4.40937 3.81813 4.51875V5.65313C3.81813 5.9125 3.50875 6.05 3.31813 5.875ZM5.30875 6.78437C5.30875 6.6125 5.44938 6.47187 5.62125 6.47187C5.79313 6.47187 5.93375 6.60937 5.93375 6.78437V9.03438C5.93345 9.10131 5.91158 9.16637 5.87138 9.2199C5.83118 9.27342 5.77479 9.31256 5.71059 9.3315C5.64639 9.35045 5.57779 9.34819 5.51497 9.32507C5.45216 9.30194 5.39847 9.25918 5.36188 9.20313L4.45875 7.825V9.03125C4.45875 9.20313 4.31813 9.34375 4.14625 9.34375C3.97438 9.34375 3.83375 9.20313 3.83375 9.03125V6.78125C3.83375 6.64375 3.92438 6.525 4.05563 6.48438C4.18688 6.44688 4.33063 6.49688 4.40563 6.6125L5.30875 7.99063V6.78437ZM6.665 6.50313H7.45563C7.6714 6.50312 7.87839 6.58863 8.03126 6.74091C8.18413 6.89319 8.27042 7.09985 8.27125 7.31563V8.55938C8.27125 9.00938 7.90563 9.375 7.45563 9.375H6.665C6.49313 9.375 6.3525 9.23438 6.3525 9.0625V6.81563C6.3525 6.64375 6.49313 6.50313 6.665 6.50313ZM7.45875 8.75C7.56188 8.75 7.64938 8.66563 7.64938 8.55938V7.31563C7.64938 7.2125 7.565 7.125 7.45875 7.125H6.98063V8.75H7.45875ZM3.05563 7.125C3.2275 7.125 3.36813 6.98438 3.36813 6.8125C3.36813 6.64062 3.2275 6.5 3.05563 6.5H2.01813C1.84625 6.5 1.70563 6.64062 1.70563 6.8125V9.0625C1.70563 9.23438 1.84625 9.375 2.01813 9.375H3.05875C3.23063 9.375 3.37125 9.23438 3.37125 9.0625C3.37125 8.89063 3.23063 8.75 3.05875 8.75H2.3275V8.25H3.05563C3.2275 8.25 3.36813 8.10938 3.36813 7.9375C3.36813 7.76563 3.2275 7.625 3.05563 7.625H2.3275V7.125H3.05563Z" fill="black"/>
</g>
<defs>
<clipPath id="clip0_1_9">
<rect width="10" height="10" fill="white"/>
</clipPath>
</defs>
</svg>
