<svg width="6" height="10" viewBox="0 0 6 10" fill="none" xmlns="http://www.w3.org/2000/svg">
<g clip-path="url(#clip0_1_4)">
<path d="M2.815 8.75C2.64 8.75 2.5025 8.6125 2.5025 8.4375V2.8125C2.5025 2.6375 2.64 2.5 2.815 2.5C2.99 2.5 3.1275 2.6375 3.1275 2.8125V8.4375C3.1275 8.6125 2.99 8.75 2.815 8.75Z" fill="black"/>
<path d="M5.0025 4.6875C4.96152 4.688 4.92088 4.67992 4.88321 4.66377C4.84553 4.64762 4.81165 4.62377 4.78375 4.59375L2.815 2.625L0.84625 4.59375C0.72125 4.71875 0.5275 4.71875 0.4025 4.59375C0.2775 4.46875 0.2775 4.275 0.4025 4.15L2.59 1.9625C2.715 1.8375 2.90875 1.8375 3.03375 1.9625L5.22125 4.15C5.34625 4.275 5.34625 4.46875 5.22125 4.59375C5.15875 4.65625 5.0775 4.6875 5.0025 4.6875Z" fill="black"/>
</g>
<defs>
<clipPath id="clip0_1_4">
<rect width="5.63" height="10" fill="white"/>
</clipPath>
</defs>
</svg>
