<svg width="10" height="10" viewBox="0 0 10 10" fill="none" xmlns="http://www.w3.org/2000/svg">
<g clip-path="url(#clip0_1_6)">
<path d="M5.10859 1.97812C5.07952 1.95031 5.04083 1.93478 5.00059 1.93478C4.96035 1.93478 4.92166 1.95031 4.89258 1.97812L1.29688 5.41309C1.2816 5.42769 1.26946 5.44525 1.26116 5.46468C1.25287 5.48412 1.24861 5.50504 1.24863 5.52617L1.24805 8.75C1.24805 8.91576 1.31389 9.07473 1.43111 9.19194C1.54832 9.30915 1.70729 9.375 1.87305 9.375H3.75C3.83288 9.375 3.91237 9.34208 3.97097 9.28347C4.02958 9.22487 4.0625 9.14538 4.0625 9.0625V6.40625C4.0625 6.36481 4.07896 6.32507 4.10826 6.29576C4.13757 6.26646 4.17731 6.25 4.21875 6.25H5.78125C5.82269 6.25 5.86243 6.26646 5.89174 6.29576C5.92104 6.32507 5.9375 6.36481 5.9375 6.40625V9.0625C5.9375 9.14538 5.97042 9.22487 6.02903 9.28347C6.08763 9.34208 6.16712 9.375 6.25 9.375H8.12617C8.29193 9.375 8.4509 9.30915 8.56811 9.19194C8.68532 9.07473 8.75117 8.91576 8.75117 8.75V5.52617C8.7512 5.50504 8.74693 5.48412 8.73864 5.46468C8.73035 5.44525 8.7182 5.42769 8.70293 5.41309L5.10859 1.97812Z" fill="black"/>
<path d="M9.58809 4.76855L8.12715 3.3709V1.25C8.12715 1.16712 8.09422 1.08763 8.03562 1.02903C7.97701 0.970424 7.89753 0.9375 7.81465 0.9375H6.87715C6.79427 0.9375 6.71478 0.970424 6.65618 1.02903C6.59757 1.08763 6.56465 1.16712 6.56465 1.25V1.875L5.4334 0.793359C5.32754 0.686328 5.17012 0.625 5 0.625C4.83047 0.625 4.67344 0.686328 4.56758 0.793555L0.413281 4.76816C0.291797 4.88535 0.276562 5.07812 0.387109 5.20508C0.414869 5.23712 0.448859 5.26318 0.487011 5.28167C0.525163 5.30017 0.566679 5.3107 0.609031 5.31264C0.651384 5.31457 0.693687 5.30787 0.733368 5.29294C0.773048 5.27801 0.809275 5.25516 0.839844 5.22578L4.89258 1.35312C4.92166 1.32531 4.96035 1.30978 5.00059 1.30978C5.04083 1.30978 5.07952 1.32531 5.10859 1.35312L9.16172 5.22578C9.22142 5.28304 9.30139 5.31428 9.3841 5.31267C9.46681 5.31106 9.5455 5.27672 9.60293 5.21719C9.72285 5.09297 9.71289 4.88789 9.58809 4.76855Z" fill="black"/>
</g>
<defs>
<clipPath id="clip0_1_6">
<rect width="10" height="10" fill="white"/>
</clipPath>
</defs>
</svg>
