<svg width="10" height="10" viewBox="0 0 10 10" fill="none" xmlns="http://www.w3.org/2000/svg">
<path d="M1.73563 3.27708L2.76125 5.84792C2.80625 5.96029 2.82868 6.08043 2.82725 6.20147C2.82582 6.32252 2.80056 6.44209 2.75291 6.55337C2.70526 6.66465 2.63615 6.76545 2.54954 6.85002C2.46293 6.93459 2.36051 7.00127 2.24813 7.04625H2.24792C2.0208 7.13654 1.76711 7.13291 1.54266 7.03618C1.31821 6.93944 1.14137 6.75752 1.05104 6.53042L0.9375 6.24583M4.87771 3.64917L6.37437 3.05208L5.66875 5.63229L7.16542 5.03521M6.77479 2.47104L8.27146 1.87396L7.56583 4.45396L9.0625 3.85688M4.76437 5.04021C4.80359 5.13848 4.82306 5.24351 4.82168 5.34931C4.82029 5.45511 4.79808 5.5596 4.75632 5.65681C4.71455 5.75402 4.65404 5.84206 4.57825 5.91588C4.50245 5.98971 4.41286 6.04788 4.31458 6.08708C4.2163 6.12629 4.11125 6.14575 4.00545 6.14436C3.89964 6.14296 3.79514 6.12073 3.69793 6.07894C3.60071 6.03716 3.51268 5.97663 3.43886 5.90081C3.36505 5.82499 3.30689 5.73538 3.26771 5.63708L3.07375 5.15083C3.03454 5.05256 3.01507 4.94753 3.01645 4.84173C3.01783 4.73593 3.04004 4.63144 3.08181 4.53423C3.12358 4.43702 3.18408 4.34898 3.25988 4.27516C3.33567 4.20133 3.42526 4.14316 3.52354 4.10396C3.62183 4.06475 3.72687 4.04529 3.83268 4.04669C3.93849 4.04808 4.04298 4.07031 4.1402 4.1121C4.23741 4.15389 4.32544 4.21442 4.39926 4.29023C4.47308 4.36605 4.53124 4.45566 4.57042 4.55396M5.06271 5.78854L4.27167 3.80563M7.34271 5.45438L7.93021 7.01396M7.68792 6.37083C7.66861 6.31963 7.65958 6.26513 7.66134 6.21044C7.66311 6.15575 7.67562 6.10194 7.69818 6.05208C7.72074 6.00223 7.75289 5.95731 7.79281 5.91988C7.83273 5.88245 7.87963 5.85326 7.93083 5.83396C7.98205 5.81466 8.03656 5.80564 8.09126 5.80742C8.14596 5.80919 8.19978 5.82172 8.24964 5.8443C8.29949 5.86688 8.34441 5.89906 8.38183 5.939C8.41925 5.97894 8.44843 6.02586 8.46771 6.07708L8.71 6.72042M6.87542 7.31167C6.99307 7.34737 7.12005 7.3354 7.22896 7.27833L7.31646 7.24521C7.38484 7.21933 7.44016 7.16735 7.47024 7.10071C7.50032 7.03406 7.5027 6.9582 7.47687 6.88979C7.46414 6.85588 7.44485 6.82481 7.42011 6.79835C7.39536 6.7719 7.36565 6.75057 7.33267 6.7356C7.29968 6.72062 7.26407 6.71229 7.22787 6.71108C7.19167 6.70987 7.15558 6.71581 7.12167 6.72854L6.94667 6.79437C6.87821 6.82003 6.80236 6.81746 6.73579 6.78722C6.66923 6.75699 6.61739 6.70156 6.59167 6.63313C6.56584 6.56472 6.56822 6.48886 6.5983 6.42221C6.62838 6.35556 6.6837 6.30359 6.75208 6.27771L6.83958 6.24479C6.94847 6.18767 7.07544 6.17563 7.19312 6.21125M5.31333 7.77521C5.3017 7.84774 5.2711 7.9159 5.22464 7.97279C5.17817 8.02968 5.11749 8.07328 5.04875 8.09917C4.94534 8.13808 4.83071 8.13432 4.73007 8.08873C4.62943 8.04314 4.55102 7.95944 4.51208 7.85604L4.41667 7.60271C4.39736 7.55151 4.38833 7.497 4.3901 7.44231C4.39186 7.38762 4.40437 7.33381 4.42693 7.28396C4.44949 7.2341 4.48164 7.18918 4.52156 7.15176C4.56148 7.11433 4.60838 7.08513 4.65958 7.06583C4.72821 7.03995 4.80245 7.03263 4.87481 7.04463C4.94716 7.05663 5.01507 7.08752 5.07167 7.13417M6.35104 7.16354C6.38995 7.26695 6.3862 7.38158 6.3406 7.48222C6.29501 7.58286 6.21131 7.66127 6.10792 7.70021C6.00454 7.73913 5.88993 7.7354 5.78929 7.68985C5.68866 7.6443 5.61023 7.56065 5.57125 7.45729L5.47583 7.20375C5.4565 7.15254 5.44744 7.09801 5.44919 7.0433C5.45093 6.98859 5.46344 6.93475 5.486 6.88487C5.50856 6.835 5.54073 6.79005 5.58066 6.75261C5.6206 6.71517 5.66752 6.68597 5.71875 6.66667C5.82216 6.62776 5.93679 6.63151 6.03743 6.6771C6.13807 6.7227 6.21648 6.8064 6.25542 6.90979M6.49792 7.55333L6.10875 6.52021" stroke="black" stroke-width="0.208333" stroke-linecap="round" stroke-linejoin="round"/>
</svg>
