<svg width="10" height="10" viewBox="0 0 10 10" fill="none" xmlns="http://www.w3.org/2000/svg">
<g clip-path="url(#clip0_1_39)">
<path d="M1.515 4.70542C1.43689 4.78355 1.39301 4.88951 1.39301 5C1.39301 5.11048 1.43689 5.21645 1.515 5.29458L3.87208 7.65167C3.95067 7.72757 4.05592 7.76956 4.16517 7.76861C4.27442 7.76766 4.37892 7.72384 4.45617 7.64659C4.53343 7.56934 4.57725 7.46483 4.5782 7.35558C4.57915 7.24633 4.53715 7.14108 4.46125 7.0625L2.81542 5.41667H8.33333C8.44384 5.41667 8.54982 5.37277 8.62796 5.29463C8.7061 5.21649 8.75 5.11051 8.75 5C8.75 4.88949 8.7061 4.78351 8.62796 4.70537C8.54982 4.62723 8.44384 4.58333 8.33333 4.58333H2.81542L4.46125 2.9375C4.53715 2.85891 4.57915 2.75366 4.5782 2.64441C4.57725 2.53517 4.53343 2.43066 4.45617 2.35341C4.37892 2.27615 4.27442 2.23233 4.16517 2.23138C4.05592 2.23044 3.95067 2.27243 3.87208 2.34833L1.515 4.70542Z" fill=""/>
</g>
<defs>
<clipPath id="clip0_1_39">
<rect width="10" height="10" fill="white"/>
</clipPath>
</defs>
</svg>
