<svg width="24" height="24" viewBox="0 0 24 24" fill="none" xmlns="http://www.w3.org/2000/svg">
<g clip-path="url(#clip0_2_2)">
<path d="M20.891 2.006L20.997 2L21.127 2.008L21.217 2.024L21.34 2.059L21.447 2.105L21.547 2.162L21.637 2.229L21.719 2.304L21.771 2.363L21.853 2.479L21.905 2.575C21.952 2.675 21.982 2.781 21.995 2.891L22 2.997C22 3.072 21.992 3.146 21.976 3.217L21.941 3.34L15.409 21.417C15.2852 21.6866 15.0866 21.9149 14.8368 22.075C14.5871 22.2351 14.2966 22.3201 14 22.32C13.7328 22.3208 13.47 22.2525 13.2371 22.1216C13.0042 21.9907 12.8092 21.8017 12.671 21.573L12.606 21.446L9.254 14.744L2.584 11.408C2.3372 11.2951 2.12436 11.1194 1.96677 10.8985C1.80918 10.6775 1.71236 10.4191 1.686 10.149L1.68 10C1.68 9.44 1.981 8.928 2.521 8.63L2.661 8.56L20.678 2.054L20.784 2.024L20.891 2.006Z" fill=""/>
</g>
<defs>
<clipPath id="clip0_2_2">
<rect width="24" height="24" fill="white"/>
</clipPath>
</defs>
</svg>
