<svg width="9" height="10" viewBox="0 0 9 10" fill="none" xmlns="http://www.w3.org/2000/svg">
<g clip-path="url(#clip0_1_2)">
<path d="M7.8125 0.625H0.9375C0.419922 0.625 0 1.04492 0 1.5625V8.4375C0 8.95508 0.419922 9.375 0.9375 9.375H7.8125C8.33008 9.375 8.75 8.95508 8.75 8.4375V1.5625C8.75 1.04492 8.33008 0.625 7.8125 0.625ZM4.6875 6.25H3.75V7.1875C3.75 7.35938 3.60938 7.5 3.4375 7.5H2.8125C2.64062 7.5 2.5 7.35938 2.5 7.1875V2.8125C2.5 2.64062 2.64062 2.5 2.8125 2.5H4.6875C5.7207 2.5 6.5625 3.3418 6.5625 4.375C6.5625 5.4082 5.7207 6.25 4.6875 6.25ZM4.6875 3.75H3.75V5H4.6875C5.03125 5 5.3125 4.71875 5.3125 4.375C5.3125 4.03125 5.03125 3.75 4.6875 3.75Z" fill=""/>
</g>
<defs>
<clipPath id="clip0_1_2">
<rect width="8.75" height="10" fill="white"/>
</clipPath>
</defs>
</svg>
