<svg width="10" height="10" viewBox="0 0 10 10" fill="none" xmlns="http://www.w3.org/2000/svg">
<path d="M2.08333 4.58333L2.70833 2.70833H7.29167L7.91667 4.58333M7.29167 6.66667C7.12591 6.66667 6.96694 6.60082 6.84973 6.48361C6.73251 6.3664 6.66667 6.20743 6.66667 6.04167C6.66667 5.87591 6.73251 5.71693 6.84973 5.59972C6.96694 5.48251 7.12591 5.41667 7.29167 5.41667C7.45743 5.41667 7.6164 5.48251 7.73361 5.59972C7.85082 5.71693 7.91667 5.87591 7.91667 6.04167C7.91667 6.20743 7.85082 6.3664 7.73361 6.48361C7.6164 6.60082 7.45743 6.66667 7.29167 6.66667ZM2.70833 6.66667C2.54257 6.66667 2.3836 6.60082 2.26639 6.48361C2.14918 6.3664 2.08333 6.20743 2.08333 6.04167C2.08333 5.87591 2.14918 5.71693 2.26639 5.59972C2.3836 5.48251 2.54257 5.41667 2.70833 5.41667C2.87409 5.41667 3.03306 5.48251 3.15028 5.59972C3.26749 5.71693 3.33333 5.87591 3.33333 6.04167C3.33333 6.20743 3.26749 6.3664 3.15028 6.48361C3.03306 6.60082 2.87409 6.66667 2.70833 6.66667ZM7.88333 2.5C7.8 2.25833 7.56667 2.08333 7.29167 2.08333H6.25V1.25H3.75V2.08333H2.70833C2.43333 2.08333 2.2 2.25833 2.11667 2.5L1.25 5V8.33333C1.25 8.44384 1.2939 8.54982 1.37204 8.62796C1.45018 8.7061 1.55616 8.75 1.66667 8.75H2.08333C2.19384 8.75 2.29982 8.7061 2.37796 8.62796C2.4561 8.54982 2.5 8.44384 2.5 8.33333V7.91667H7.5V8.33333C7.5 8.44384 7.5439 8.54982 7.62204 8.62796C7.70018 8.7061 7.80616 8.75 7.91667 8.75H8.33333C8.44384 8.75 8.54982 8.7061 8.62796 8.62796C8.7061 8.54982 8.75 8.44384 8.75 8.33333V5L7.88333 2.5Z" fill=""/>
</svg>
