<svg width="10" height="10" viewBox="0 0 10 10" fill="none" xmlns="http://www.w3.org/2000/svg">
<path d="M6 2.5V1C6 0.725 5.775 0.5 5.5 0.5H4.5C4.225 0.5 4 0.725 4 1V2.5C4 2.775 4.225 3 4.5 3H5.5C5.775 3 6 2.775 6 2.5ZM5 1C5.275 1 5.5 1.225 5.5 1.5C5.5 1.775 5.275 2 5 2C4.725 2 4.5 1.775 4.5 1.5C4.5 1.225 4.725 1 5 1ZM9 7.5V3.5C9 2.95 8.55 2.5 8 2.5H6.5V2.665C6.5 3.125 6.125 3.5 5.665 3.5H4.335C3.875 3.5 3.5 3.125 3.5 2.665V2.5H2C1.45 2.5 1 2.95 1 3.5V7.5C1 8.05 1.45 8.5 2 8.5H8C8.55 8.5 9 8.05 9 7.5ZM8.5 4.5V7.5H1.5V4.5H8.5ZM4.5 5.5C4.5 5.225 4.39 5 4.25 5C4.11 5 4 5.225 4 5.5C4 5.775 4.11 6 4.25 6C4.39 6 4.5 5.775 4.5 5.5ZM6 5.5C6 5.225 5.89 5 5.75 5C5.61 5 5.5 5.225 5.5 5.5C5.5 5.775 5.61 6 5.75 6C5.89 6 6 5.775 6 5.5ZM3.02 6.105C3.48 6.345 4.19 6.5 5 6.5C5.81 6.5 6.52 6.345 6.98 6.105C6.875 6.605 6.035 7 5 7C3.965 7 3.125 6.605 3.02 6.105Z" fill=""/>
</svg>
