<svg width="10" height="10" viewBox="0 0 10 10" fill="none" xmlns="http://www.w3.org/2000/svg">
<path fill-rule="evenodd" clip-rule="evenodd" d="M6.34938 6.7C6.30332 6.74291 6.26638 6.79466 6.24076 6.85216C6.21514 6.90966 6.20137 6.97173 6.20026 7.03467C6.19914 7.09761 6.21072 7.16013 6.2343 7.2185C6.25787 7.27687 6.29296 7.32989 6.33748 7.3744C6.38199 7.41891 6.43501 7.454 6.49338 7.47758C6.55174 7.50115 6.61426 7.51273 6.6772 7.51162C6.74014 7.51051 6.80221 7.49673 6.85971 7.47111C6.91721 7.44549 6.96896 7.40855 7.01187 7.3625L9.04312 5.33125L9.375 5L9.04375 4.66875L7.0125 2.6375C6.92413 2.55207 6.80575 2.50477 6.68284 2.50578C6.55994 2.50679 6.44234 2.55603 6.35539 2.6429C6.26844 2.72977 6.21909 2.84731 6.21796 2.97022C6.21684 3.09312 6.26403 3.21155 6.34938 3.3L7.58062 4.53125H1.09375C0.96943 4.53125 0.850201 4.58064 0.762294 4.66854C0.674386 4.75645 0.625 4.87568 0.625 5C0.625 5.12432 0.674386 5.24355 0.762294 5.33146C0.850201 5.41936 0.96943 5.46875 1.09375 5.46875H7.58062L6.34938 6.7Z" fill="black"/>
</svg>
