<svg width="9" height="10" viewBox="0 0 9 10" fill="none" xmlns="http://www.w3.org/2000/svg">
<g clip-path="url(#clip0_1_4)">
<path d="M7.19258 0.778378C6.73119 0.252484 5.89715 0.02702 4.83017 0.02702H1.73348C1.62791 0.0270239 1.5258 0.0646869 1.44552 0.133238C1.36524 0.201788 1.31204 0.29673 1.2955 0.400993L0.00609284 8.57871C-0.0195363 8.73997 0.105331 8.88599 0.268775 8.88599H2.18056L2.6607 5.8406L2.64579 5.93596C2.68 5.7207 2.86411 5.56192 3.08212 5.56192H3.9906C5.7753 5.56192 7.17275 4.83702 7.58096 2.74003C7.59308 2.67801 7.60358 2.61765 7.61265 2.55868C7.56113 2.53139 7.56113 2.53139 7.61265 2.55868C7.73421 1.78361 7.61182 1.25603 7.19258 0.778378Z" fill="#27346A"/>
<path d="M3.39222 2.27947C3.44448 2.25458 3.50165 2.24169 3.55954 2.24172H5.98728C6.27477 2.24172 6.54291 2.26043 6.78795 2.29987C6.85651 2.3108 6.92472 2.32385 6.99248 2.33901C7.08852 2.3602 7.18345 2.38614 7.27692 2.41672C7.39738 2.45695 7.50957 2.50381 7.61268 2.55868C7.73421 1.78331 7.61182 1.25603 7.19258 0.778378C6.73093 0.252484 5.89715 0.02702 4.83017 0.02702H1.73321C1.51517 0.02702 1.32967 0.185762 1.2955 0.400993L0.00609279 8.57841C-0.0195364 8.73993 0.105331 8.88576 0.26851 8.88576H2.18056L3.17669 2.56887C3.18648 2.50678 3.21122 2.448 3.24876 2.39759C3.28631 2.34718 3.33554 2.30664 3.39222 2.27947Z" fill="#27346A"/>
<path d="M7.58096 2.74003C7.17275 4.83672 5.77533 5.56192 3.9906 5.56192H3.08185C2.86384 5.56192 2.6797 5.7207 2.64583 5.93596L2.04851 9.72255C2.02619 9.86368 2.13533 9.99156 2.27811 9.99156H3.8897C3.98202 9.99153 4.0713 9.95857 4.14148 9.8986C4.21167 9.83863 4.25816 9.75559 4.27258 9.6644L4.28828 9.58229L4.59202 7.65725L4.61159 7.55086C4.62602 7.45968 4.6725 7.37664 4.74268 7.31668C4.81285 7.25671 4.90213 7.22374 4.99444 7.22371H5.23563C6.79679 7.22371 8.01921 6.58947 8.37642 4.75517C8.52553 3.98861 8.44838 3.34861 8.05394 2.89907C7.9343 2.76291 7.78573 2.65046 7.61265 2.55868C7.60328 2.61795 7.59311 2.67801 7.58096 2.74003Z" fill="#2790C3"/>
<path d="M7.18543 2.38834C7.12178 2.36976 7.05753 2.3533 6.99278 2.33901C6.92499 2.3241 6.85678 2.31114 6.78824 2.30013C6.54295 2.26043 6.275 2.24169 5.98725 2.24169H3.5598C3.50187 2.24156 3.44466 2.25457 3.39248 2.27974C3.33574 2.30682 3.28645 2.34734 3.24889 2.39776C3.21133 2.44819 3.18663 2.50701 3.17692 2.56914L2.66096 5.8406L2.64606 5.93596C2.68 5.7207 2.86411 5.56192 3.08215 5.56192H3.99089C5.7756 5.56192 7.17301 4.83702 7.58122 2.74003C7.59338 2.67801 7.60358 2.61791 7.61295 2.55868C7.50957 2.50411 7.39768 2.45695 7.27719 2.41699C7.24678 2.40691 7.2162 2.39736 7.18546 2.38834" fill="#1F264F"/>
</g>
<defs>
<clipPath id="clip0_1_4">
<rect width="8.48" height="10" fill="white"/>
</clipPath>
</defs>
</svg>
