<svg width="10" height="10" viewBox="0 0 10 10" fill="none" xmlns="http://www.w3.org/2000/svg">
<path d="M8.90625 5C8.90625 5.12432 8.85686 5.24355 8.76896 5.33146C8.68105 5.41936 8.56182 5.46875 8.4375 5.46875H2.69531L4.70781 7.48086C4.79587 7.56892 4.84534 7.68835 4.84534 7.81289C4.84534 7.93743 4.79587 8.05686 4.70781 8.14492C4.61975 8.23298 4.50032 8.28245 4.37578 8.28245C4.25125 8.28245 4.13181 8.23298 4.04375 8.14492L1.23125 5.33242C1.18755 5.28887 1.15288 5.23713 1.12922 5.18015C1.10556 5.12317 1.09338 5.06208 1.09338 5.00039C1.09338 4.9387 1.10556 4.87761 1.12922 4.82063C1.15288 4.76365 1.18755 4.71191 1.23125 4.66836L4.04375 1.85586C4.08735 1.81226 4.13912 1.77767 4.19609 1.75407C4.25306 1.73047 4.31412 1.71833 4.37578 1.71833C4.43745 1.71833 4.49851 1.73047 4.55548 1.75407C4.61245 1.77767 4.66421 1.81226 4.70781 1.85586C4.75142 1.89946 4.786 1.95123 4.8096 2.0082C4.8332 2.06517 4.84534 2.12623 4.84534 2.18789C4.84534 2.24955 4.8332 2.31061 4.8096 2.36758C4.786 2.42455 4.75142 2.47632 4.70781 2.51992L2.69531 4.53125H8.4375C8.56182 4.53125 8.68105 4.58064 8.76896 4.66854C8.85686 4.75645 8.90625 4.87568 8.90625 5Z" fill="black"/>
</svg>
