<svg width="10" height="10" viewBox="0 0 10 10" fill="none" xmlns="http://www.w3.org/2000/svg">
<path d="M9.05781 6.83906C8.98816 7.36837 8.72822 7.85423 8.32653 8.20589C7.92484 8.55754 7.40887 8.75096 6.875 8.75C3.77344 8.75 1.25 6.22656 1.25 3.125C1.24904 2.59113 1.44246 2.07517 1.79411 1.67347C2.14577 1.27178 2.63163 1.01184 3.16094 0.942188C3.29479 0.925844 3.43033 0.953227 3.54734 1.02025C3.66435 1.08727 3.75654 1.19034 3.81016 1.31406L4.63516 3.15586V3.16055C4.67621 3.25526 4.69316 3.35866 4.6845 3.46151C4.67585 3.56437 4.64185 3.66349 4.58555 3.75C4.57852 3.76055 4.57109 3.77031 4.56328 3.78008L3.75 4.74414C4.04258 5.33867 4.66445 5.95508 5.2668 6.24844L6.21758 5.43945C6.22692 5.4316 6.2367 5.4243 6.24688 5.41758C6.33332 5.35992 6.43277 5.32473 6.53624 5.31518C6.6397 5.30563 6.74392 5.32203 6.83945 5.36289L6.84453 5.36523L8.68477 6.18984C8.80871 6.24327 8.91203 6.33538 8.97927 6.45241C9.04651 6.56943 9.07407 6.70508 9.05781 6.83906Z" fill=""/>
</svg>
