<svg width="10" height="10" viewBox="0 0 10 10" fill="none" xmlns="http://www.w3.org/2000/svg">
<g clip-path="url(#clip0_1_2)">
<path d="M5.03708 1.51417C4.90051 1.58405 4.78588 1.69027 4.70582 1.82113C4.62575 1.952 4.58337 2.10242 4.58333 2.25583L4.58292 3.33333H1.66667C1.44565 3.33333 1.23369 3.42113 1.07741 3.57741C0.921131 3.73369 0.833333 3.94565 0.833333 4.16667V5.83333L0.835417 5.89583C0.851185 6.10548 0.945613 6.30142 1.09977 6.44438C1.25393 6.58733 1.45643 6.66673 1.66667 6.66667L4.58292 6.66625L4.58333 7.74417C4.58337 7.90896 4.63226 8.07004 4.72383 8.20705C4.8154 8.34406 4.94554 8.45084 5.09779 8.5139C5.25004 8.57696 5.41757 8.59346 5.57919 8.56132C5.74082 8.52918 5.88929 8.44984 6.00583 8.33333L8.75 5.58917C8.90623 5.43289 8.99399 5.22097 8.99399 5C8.99399 4.77903 8.90623 4.56711 8.75 4.41083L6.00583 1.66667C5.8893 1.55006 5.74079 1.47063 5.5791 1.43844C5.41741 1.40625 5.24981 1.42275 5.0975 1.48583L5.03708 1.51417Z" fill=""/>
</g>
<defs>
<clipPath id="clip0_1_2">
<rect width="10" height="10" fill="white"/>
</clipPath>
</defs>
</svg>
