<svg width="9" height="10" viewBox="0 0 9 10" fill="none" xmlns="http://www.w3.org/2000/svg">
<g clip-path="url(#clip0_1_2)">
<path d="M0 1.25C0 0.904297 0.279297 0.625 0.625 0.625H2.1875C3.74023 0.625 5 1.88477 5 3.4375C5 4.58594 4.3125 5.57227 3.32617 6.00977L4.33008 8.51758C4.45898 8.83789 4.30273 9.20117 3.98242 9.33008C3.66211 9.45898 3.29883 9.30273 3.16992 8.98242L2.07617 6.25H1.25V8.75C1.25 9.0957 0.970703 9.375 0.625 9.375C0.279297 9.375 0 9.0957 0 8.75V5.625V1.25ZM1.25 5H2.1875C3.05078 5 3.75 4.30078 3.75 3.4375C3.75 2.57422 3.05078 1.875 2.1875 1.875H1.25V5ZM6.25977 5.32031C6.24219 5.4375 6.25977 5.49023 6.26758 5.51172C6.27539 5.5332 6.29492 5.5625 6.34961 5.60742C6.49023 5.71875 6.71484 5.80273 7.08984 5.93555L7.11523 5.94531C7.42773 6.05469 7.87109 6.21094 8.20312 6.49414C8.38867 6.65234 8.55273 6.85742 8.6543 7.125C8.75391 7.39258 8.77344 7.68164 8.72852 7.98437C8.64648 8.5332 8.32813 8.94727 7.87305 9.17383C7.44141 9.38867 6.93359 9.41797 6.44336 9.33008H6.43945C6.25781 9.29492 6.03906 9.21875 5.86719 9.1543C5.75 9.10938 5.62109 9.05859 5.52148 9.01953C5.47266 9 5.43164 8.98437 5.39844 8.9707C5.07617 8.8457 4.91797 8.48242 5.04297 8.16211C5.16797 7.8418 5.5293 7.68164 5.85156 7.80664C5.90234 7.82617 5.95312 7.8457 6.00586 7.86719C6.09961 7.9043 6.19727 7.94336 6.30664 7.98437C6.47852 8.04883 6.60547 8.08984 6.67188 8.10156C6.97852 8.15625 7.19336 8.11719 7.31445 8.05664C7.41211 8.00781 7.4707 7.93945 7.49219 7.80273C7.51172 7.66797 7.49609 7.59766 7.48242 7.5625C7.4707 7.5293 7.44727 7.49219 7.39453 7.44727C7.25977 7.33398 7.03906 7.24414 6.67383 7.11523L6.61523 7.09375C6.3125 6.98828 5.89258 6.83984 5.57422 6.58789C5.38867 6.44141 5.2168 6.24414 5.11133 5.98242C5.00391 5.7207 4.98242 5.43555 5.02539 5.13867C5.18945 4.02344 6.33398 3.61523 7.30859 3.79297C7.44336 3.81836 7.8418 3.90625 8 3.95703C8.33008 4.05859 8.51367 4.41016 8.41211 4.74023C8.31055 5.07031 7.95898 5.25391 7.62891 5.15234C7.53711 5.125 7.19336 5.04492 7.08398 5.02539C6.79883 4.97266 6.58008 5.01758 6.44727 5.08789C6.32422 5.15234 6.27344 5.23633 6.26172 5.32227L6.25977 5.32031Z" fill=""/>
</g>
<defs>
<clipPath id="clip0_1_2">
<rect width="8.75" height="10" fill="white"/>
</clipPath>
</defs>
</svg>
