<svg width="10" height="10" viewBox="0 0 10 10" fill="none" xmlns="http://www.w3.org/2000/svg">
<path fill-rule="evenodd" clip-rule="evenodd" d="M7.63292 6.01375C8.15249 5.3439 8.39736 4.50126 8.31771 3.65728C8.23806 2.81329 7.83987 2.03134 7.20415 1.47052C6.56843 0.909702 5.74293 0.612133 4.8956 0.638353C4.04826 0.664573 3.24275 1.01261 2.64292 1.61167C2.04256 2.21114 1.69339 3.01697 1.66654 3.86494C1.63969 4.71292 1.9372 5.53922 2.49843 6.17547C3.05966 6.81171 3.84237 7.21001 4.68707 7.2892C5.53177 7.36839 6.37488 7.12251 7.04458 6.60167L7.0625 6.62042L8.83 8.38833C8.86871 8.42705 8.91467 8.45776 8.96525 8.47871C9.01583 8.49966 9.07004 8.51044 9.12479 8.51044C9.17954 8.51044 9.23375 8.49966 9.28433 8.47871C9.33491 8.45776 9.38087 8.42705 9.41958 8.38833C9.4583 8.34962 9.489 8.30366 9.50996 8.25308C9.53091 8.2025 9.54169 8.14829 9.54169 8.09354C9.54169 8.03879 9.53091 7.98458 9.50996 7.934C9.489 7.88342 9.4583 7.83746 9.41958 7.79875L7.65167 6.03125C7.64558 6.02525 7.63933 6.01941 7.63292 6.01375ZM6.76792 2.20125C7.00317 2.4327 7.19026 2.70844 7.31842 3.01256C7.44657 3.31668 7.51324 3.64316 7.51458 3.97318C7.51593 4.30319 7.45192 4.63021 7.32625 4.93536C7.20057 5.24051 7.01573 5.51776 6.78237 5.75112C6.54901 5.98448 6.27176 6.16933 5.96661 6.295C5.66146 6.42067 5.33444 6.48468 5.00442 6.48333C4.67441 6.48199 4.34793 6.41532 4.04381 6.28717C3.73969 6.15901 3.46395 5.97192 3.2325 5.73667C2.76997 5.26654 2.51194 4.63268 2.51463 3.97318C2.51731 3.31367 2.78049 2.68193 3.24684 2.21559C3.71318 1.74924 4.34492 1.48606 5.00442 1.48338C5.66393 1.48069 6.29779 1.73872 6.76792 2.20125Z" fill=""/>
</svg>
