<svg width="10" height="10" viewBox="0 0 10 10" fill="none" xmlns="http://www.w3.org/2000/svg">
<g clip-path="url(#clip0_1_2)">
<path d="M4.1875 6.46875C4.51626 6.24363 4.74214 5.89714 4.81546 5.50549C4.88877 5.11384 4.80351 4.70911 4.57844 4.38031L3.34 5.22781C3.17544 5.3402 2.97298 5.38261 2.77715 5.34572C2.58132 5.30883 2.40817 5.19565 2.29578 5.03109C2.1834 4.86654 2.14098 4.66407 2.17788 4.46824C2.21477 4.27241 2.32794 4.09926 2.4925 3.98688L3.62406 3.21219L4.35031 2.71437C4.51313 2.60281 4.65237 2.46025 4.76008 2.29485C4.86779 2.12945 4.94185 1.94445 4.97804 1.75042C5.01423 1.55639 5.01183 1.35713 4.97099 1.16403C4.93014 0.970925 4.85165 0.787761 4.74 0.625L3.5 1.475L1.64344 2.745L1.64094 2.7475C1.14747 3.0852 0.808361 3.60509 0.698213 4.19281C0.588064 4.78053 0.715899 5.38794 1.05359 5.88141C1.39129 6.37487 1.91118 6.71398 2.4989 6.82413C3.08663 6.93428 3.69403 6.80645 4.1875 6.46875ZM5.81563 3.53125C5.81199 3.53304 5.8087 3.53547 5.80594 3.53844L5.81563 3.53125C5.48686 3.75637 5.26098 4.10286 5.18767 4.49451C5.11435 4.88616 5.19961 5.29089 5.42469 5.61969L6.66313 4.77219C6.82775 4.66368 7.02841 4.62415 7.22189 4.66211C7.41537 4.70008 7.58621 4.81249 7.69764 4.97516C7.80906 5.13783 7.85216 5.33775 7.81765 5.53188C7.78314 5.726 7.67378 5.89882 7.51312 6.01313L6.38156 6.78781L5.65313 7.28656C5.32431 7.51163 5.09837 7.8581 5.025 8.24976C4.95162 8.64141 5.03683 9.04617 5.26187 9.375L6.5 8.5275L8.35781 7.255C8.85161 6.91788 9.19127 6.39842 9.30206 5.81087C9.41286 5.22332 9.28571 4.61583 8.94859 4.12203C8.61148 3.62823 8.09201 3.28857 7.50446 3.17778C6.91692 3.06699 6.30943 3.19414 5.81563 3.53125Z" fill="#005A92"/>
</g>
<defs>
<clipPath id="clip0_1_2">
<rect width="10" height="10" fill="white"/>
</clipPath>
</defs>
</svg>
