<svg width="10" height="10" viewBox="0 0 10 10" fill="none" xmlns="http://www.w3.org/2000/svg">
<g clip-path="url(#clip0_1_2)">
<path d="M7.55278 9.44444C7.43002 9.44433 7.31008 9.40757 7.20833 9.33889L5.13611 7.95C5.1259 7.94295 5.11379 7.93918 5.10139 7.93918C5.08898 7.93918 5.07687 7.94295 5.06667 7.95L2.99444 9.33889C2.89039 9.40837 2.76766 9.44455 2.64255 9.44263C2.51744 9.44071 2.39588 9.40078 2.294 9.32814C2.19212 9.2555 2.11475 9.15359 2.07216 9.03594C2.02957 8.91829 2.02378 8.79047 2.05556 8.66944L2.73611 6.26944C2.73933 6.25738 2.73894 6.24463 2.73499 6.23278C2.73104 6.22093 2.7237 6.2105 2.71389 6.20278L0.752777 4.66111C0.649538 4.5842 0.572957 4.47691 0.533773 4.35428C0.494589 4.23165 0.494766 4.09983 0.53428 3.97731C0.573794 3.85478 0.650663 3.7477 0.754109 3.67107C0.857555 3.59444 0.98239 3.5521 1.11111 3.55L3.61111 3.45556C3.6234 3.45471 3.63519 3.45032 3.64504 3.44293C3.6549 3.43554 3.66241 3.42545 3.66667 3.41389L4.52778 1.07222C4.57118 0.953511 4.65002 0.851005 4.75361 0.778582C4.8572 0.706159 4.98055 0.667319 5.10694 0.667319C5.23334 0.667319 5.35669 0.706159 5.46028 0.778582C5.56387 0.851005 5.64271 0.953511 5.68611 1.07222L6.54722 3.41389C6.55148 3.42545 6.55899 3.43554 6.56884 3.44293C6.5787 3.45032 6.59049 3.45471 6.60278 3.45556L9.10278 3.55C9.2315 3.5521 9.35633 3.59444 9.45978 3.67107C9.56323 3.7477 9.64009 3.85478 9.67961 3.97731C9.71912 4.09983 9.7193 4.23165 9.68012 4.35428C9.64093 4.47691 9.56435 4.5842 9.46111 4.66111L7.5 6.20278C7.48989 6.21025 7.48233 6.22067 7.47835 6.2326C7.47437 6.24453 7.47417 6.2574 7.47778 6.26944L8.15833 8.66944C8.18222 8.7615 8.18459 8.85782 8.16526 8.95094C8.14593 9.04406 8.10541 9.13148 8.04686 9.20642C7.9883 9.28136 7.91328 9.34181 7.82759 9.38309C7.74191 9.42437 7.64788 9.44536 7.55278 9.44444ZM5.10278 7.38333C5.22579 7.3871 5.34482 7.42774 5.44444 7.5L7.51667 8.88889C7.52717 8.89687 7.53997 8.90124 7.55316 8.90135C7.56635 8.90145 7.57922 8.89728 7.58985 8.88947C7.60047 8.88166 7.60829 8.87061 7.61212 8.85799C7.61595 8.84537 7.6156 8.83185 7.61111 8.81944L6.93056 6.41944C6.89707 6.30171 6.89954 6.17666 6.93765 6.06034C6.97576 5.94402 7.04778 5.84175 7.14444 5.76667L9.10556 4.225C9.11625 4.21749 9.12426 4.20674 9.1284 4.19434C9.13254 4.18194 9.13259 4.16854 9.12855 4.1561C9.12451 4.14367 9.11659 4.13286 9.10595 4.12526C9.09531 4.11766 9.08252 4.11368 9.06945 4.11389L6.56944 4.01944C6.44703 4.01467 6.32882 3.97355 6.22987 3.90132C6.13092 3.82909 6.05573 3.72903 6.01389 3.61389L5.15278 1.27222C5.1489 1.25979 5.14114 1.24892 5.13065 1.2412C5.12015 1.23349 5.10747 1.22933 5.09444 1.22933C5.08142 1.22933 5.06873 1.23349 5.05824 1.2412C5.04775 1.24892 5.03999 1.25979 5.03611 1.27222L4.18333 3.61111C4.14149 3.72625 4.0663 3.82631 3.96735 3.89854C3.86841 3.97077 3.75019 4.01189 3.62778 4.01667L1.12778 4.11111C1.11471 4.1109 1.10191 4.11489 1.09127 4.12248C1.08063 4.13008 1.07271 4.14089 1.06867 4.15333C1.06463 4.16576 1.06468 4.17916 1.06882 4.19156C1.07296 4.20396 1.08097 4.21471 1.09167 4.22222L3.05556 5.76667C3.15193 5.84199 3.22372 5.94428 3.26181 6.06052C3.29989 6.17675 3.30255 6.30169 3.26944 6.41944L2.59167 8.81944C2.58762 8.83146 2.5876 8.84447 2.59161 8.8565C2.59562 8.86853 2.60344 8.87892 2.61389 8.88611C2.62395 8.89472 2.63676 8.89945 2.65 8.89945C2.66324 8.89945 2.67605 8.89472 2.68611 8.88611L4.75833 7.49722C4.85961 7.43005 4.97847 7.39429 5.1 7.39445L5.10278 7.38333Z" fill=""/>
</g>
<defs>
<clipPath id="clip0_1_2">
<rect width="10" height="10" fill="white"/>
</clipPath>
</defs>
</svg>
