<svg width="10" height="10" viewBox="0 0 10 10" fill="none" xmlns="http://www.w3.org/2000/svg">
<path d="M3.33333 5.00001L4.58333 6.25L6.66667 3.75001M1.66667 7V3C1.66667 2.53334 1.66667 2.30001 1.7575 2.12167C1.8375 1.96459 1.96458 1.83751 2.12167 1.75751C2.3 1.66667 2.53333 1.66667 3 1.66667H7C7.46667 1.66667 7.7 1.66667 7.87792 1.75751C8.035 1.83751 8.1625 1.96459 8.2425 2.12167C8.33333 2.29959 8.33333 2.53292 8.33333 2.99876V7.00167C8.33333 7.46751 8.33333 7.70042 8.2425 7.87834C8.16245 8.03516 8.03483 8.16264 7.87792 8.2425C7.7 8.33334 7.46708 8.33334 7.00125 8.33334H2.99875C2.53292 8.33334 2.29958 8.33334 2.12167 8.2425C1.96487 8.16261 1.83739 8.03513 1.7575 7.87834C1.66667 7.70001 1.66667 7.46667 1.66667 7Z" stroke="black" stroke-width="0.833333" stroke-linecap="round" stroke-linejoin="round"/>
</svg>
