<svg width="10" height="10" viewBox="0 0 10 10" fill="none" xmlns="http://www.w3.org/2000/svg">
<path d="M5 0.833333C4.58796 0.833333 4.18516 0.955519 3.84256 1.18444C3.49996 1.41336 3.23293 1.73873 3.07525 2.11941C2.91757 2.50009 2.87631 2.91898 2.9567 3.3231C3.03708 3.72723 3.2355 4.09845 3.52686 4.38981C3.81822 4.68117 4.18943 4.87958 4.59356 4.95997C4.99769 5.04036 5.41658 4.9991 5.79726 4.84142C6.17794 4.68373 6.50331 4.41671 6.73223 4.0741C6.96115 3.7315 7.08333 3.32871 7.08333 2.91667C7.08333 2.36413 6.86384 1.83423 6.47314 1.44353C6.08244 1.05283 5.55253 0.833333 5 0.833333ZM5 4.16667C4.75277 4.16667 4.5111 4.09336 4.30554 3.956C4.09998 3.81865 3.93976 3.62343 3.84515 3.39502C3.75054 3.16661 3.72579 2.91528 3.77402 2.6728C3.82225 2.43033 3.9413 2.2076 4.11612 2.03278C4.29093 1.85797 4.51366 1.73892 4.75614 1.69069C4.99861 1.64245 5.24995 1.66721 5.47835 1.76182C5.70676 1.85643 5.90199 2.01664 6.03934 2.2222C6.17669 2.42777 6.25 2.66944 6.25 2.91667C6.25 3.24819 6.1183 3.56613 5.88388 3.80055C5.64946 4.03497 5.33152 4.16667 5 4.16667ZM8.75 8.75V8.33333C8.75 7.55979 8.44271 6.81792 7.89573 6.27094C7.34875 5.72396 6.60688 5.41667 5.83333 5.41667H4.16667C3.39312 5.41667 2.65125 5.72396 2.10427 6.27094C1.55729 6.81792 1.25 7.55979 1.25 8.33333V8.75H2.08333V8.33333C2.08333 7.7808 2.30283 7.2509 2.69353 6.86019C3.08423 6.46949 3.61413 6.25 4.16667 6.25H5.83333C6.38587 6.25 6.91577 6.46949 7.30647 6.86019C7.69717 7.2509 7.91667 7.7808 7.91667 8.33333V8.75H8.75Z" fill=""/>
</svg>
