<svg width="10" height="10" viewBox="0 0 10 10" fill="none" xmlns="http://www.w3.org/2000/svg">
<g clip-path="url(#clip0_1_2)">
<path d="M5 -3.83685e-07C4.68907 -0.0074358 4.37978 0.0473849 4.09035 0.161237C3.80091 0.275089 3.53717 0.445674 3.31463 0.662956C3.09209 0.880238 2.91524 1.13983 2.79451 1.42646C2.67377 1.71309 2.61157 2.02098 2.61157 2.332C2.61157 2.64302 2.67377 2.95091 2.79451 3.23754C2.91524 3.52417 3.09209 3.78376 3.31463 4.00104C3.53717 4.21833 3.80091 4.38891 4.09035 4.50276C4.37978 4.61661 4.68907 4.67143 5 4.664C5.31093 4.67143 5.62022 4.61661 5.90965 4.50276C6.19909 4.38891 6.46283 4.21833 6.68537 4.00104C6.90791 3.78376 7.08476 3.52417 7.20549 3.23754C7.32623 2.95091 7.38843 2.64302 7.38843 2.332C7.38843 2.02098 7.32623 1.71309 7.20549 1.42646C7.08476 1.13983 6.90791 0.880238 6.68537 0.662956C6.46283 0.445674 6.19909 0.275089 5.90965 0.161237C5.62022 0.0473849 5.31093 -0.0074358 5 -3.83685e-07ZM3.66667 5.996C3.04783 5.996 2.45434 6.24183 2.01675 6.67942C1.57917 7.117 1.33333 7.7105 1.33333 8.32933V9.994H8.66667V8.32933C8.66667 7.7105 8.42083 7.117 7.98325 6.67942C7.54566 6.24183 6.95217 5.996 6.33333 5.996H3.66667Z" fill=""/>
</g>
<defs>
<clipPath id="clip0_1_2">
<rect width="10" height="10" fill="white"/>
</clipPath>
</defs>
</svg>
